<?xml version="1.0" encoding="UTF-8" standalone="no"?>
<!-- Created with Inkscape (http://www.inkscape.org/) -->

<svg
   width="206mm"
   height="267mm"
   viewBox="0 0 206 267"
   version="1.1"
   id="svg27"
   sodipodi:docname="svg_ripspythreads.svg"
   inkscape:version="1.1.2 (0a00cf5339, 2022-02-04)"
   xmlns:inkscape="http://www.inkscape.org/namespaces/inkscape"
   xmlns:sodipodi="http://sodipodi.sourceforge.net/DTD/sodipodi-0.dtd"
   xmlns="http://www.w3.org/2000/svg"
   xmlns:svg="http://www.w3.org/2000/svg">
  <sodipodi:namedview
     id="namedview29"
     pagecolor="#ffffff"
     bordercolor="#666666"
     borderopacity="1.0"
     inkscape:pageshadow="2"
     inkscape:pageopacity="0.0"
     inkscape:pagecheckerboard="0"
     inkscape:document-units="mm"
     showgrid="false"
     inkscape:zoom="1.28"
     inkscape:cx="229.6875"
     inkscape:cy="390.23438"
     inkscape:window-width="2499"
     inkscape:window-height="1379"
     inkscape:window-x="0"
     inkscape:window-y="25"
     inkscape:window-maximized="1"
     inkscape:current-layer="layer1" />
  <defs
     id="defs24">
    <marker
       style="overflow:visible"
       id="Arrow1Lend"
       refX="0"
       refY="0"
       orient="auto"
       inkscape:stockid="Arrow1Lend"
       inkscape:isstock="true">
      <path
         transform="matrix(-0.8,0,0,-0.8,-10,0)"
         style="fill:context-stroke;fill-rule:evenodd;stroke:context-stroke;stroke-width:1pt"
         d="M 0,0 5,-5 -12.5,0 5,5 Z"
         id="path16255" />
    </marker>
    <marker
       style="overflow:visible"
       id="Arrow1Lstart"
       refX="0"
       refY="0"
       orient="auto"
       inkscape:stockid="Arrow1Lstart"
       inkscape:isstock="true">
      <path
         transform="matrix(0.8,0,0,0.8,10,0)"
         style="fill:context-stroke;fill-rule:evenodd;stroke:context-stroke;stroke-width:1pt"
         d="M 0,0 5,-5 -12.5,0 5,5 Z"
         id="path16252" />
    </marker>
    <linearGradient
       id="linearGradient9473"
       inkscape:swatch="solid">
      <stop
         style="stop-color:#000000;stop-opacity:1;"
         offset="0"
         id="stop9471" />
    </linearGradient>
    <marker
       style="overflow:visible"
       id="Arrow1Lend-3"
       refX="0"
       refY="0"
       orient="auto"
       inkscape:stockid="Arrow1Lend"
       inkscape:isstock="true">
      <path
         transform="matrix(-0.8,0,0,-0.8,-10,0)"
         style="fill:context-stroke;fill-rule:evenodd;stroke:context-stroke;stroke-width:1pt"
         d="M 0,0 5,-5 -12.5,0 5,5 Z"
         id="path16255-5" />
    </marker>
    <marker
       style="overflow:visible"
       id="Arrow1Lend-3-2"
       refX="0"
       refY="0"
       orient="auto"
       inkscape:stockid="Arrow1Lend"
       inkscape:isstock="true">
      <path
         transform="matrix(-0.8,0,0,-0.8,-10,0)"
         style="fill:context-stroke;fill-rule:evenodd;stroke:context-stroke;stroke-width:1pt"
         d="M 0,0 5,-5 -12.5,0 5,5 Z"
         id="path16255-5-9" />
    </marker>
    <marker
       style="overflow:visible"
       id="Arrow1Lend-2"
       refX="0"
       refY="0"
       orient="auto"
       inkscape:stockid="Arrow1Lend"
       inkscape:isstock="true">
      <path
         transform="matrix(-0.8,0,0,-0.8,-10,0)"
         style="fill:context-stroke;fill-rule:evenodd;stroke:context-stroke;stroke-width:1pt"
         d="M 0,0 5,-5 -12.5,0 5,5 Z"
         id="path16255-7" />
    </marker>
    <style
       id="style11955">.cls-1{fill:none;stroke:#000000;stroke-linecap:round;stroke-linejoin:round;}</style>
  </defs>
  <g
     inkscape:label="Layer 1"
     inkscape:groupmode="layer"
     id="layer1">
    <rect
       style="fill:#6d665c;fill-opacity:0.403922;stroke:#000000;stroke-width:1.065"
       id="rect1345"
       width="69.292458"
       height="104.81333"
       x="14.367993"
       y="58.2775" />
    <rect
       style="fill:#6d665c;fill-opacity:0.0897505;stroke:#000000;stroke-width:0.337531;stroke-miterlimit:3.9;stroke-dasharray:none;stroke-opacity:1"
       id="rect16745"
       width="191.4919"
       height="116.5026"
       x="10.129625"
       y="52.775742" />
    <text
       xml:space="preserve"
       style="font-style:normal;font-weight:normal;font-size:10.5833px;line-height:1.25;font-family:sans-serif;fill:#000000;fill-opacity:1;stroke:none;stroke-width:0.264583"
       x="23.774961"
       y="91.900291"
       id="text2625"><tspan
         sodipodi:role="line"
         id="tspan2623"
         style="stroke-width:0.264583"
         x="23.774961"
         y="91.900291">thread</tspan></text>
    <text
       xml:space="preserve"
       style="font-style:normal;font-weight:normal;font-size:10.5833px;line-height:1.25;font-family:sans-serif;fill:#000000;fill-opacity:1;stroke:none;stroke-width:0.264583"
       x="152.33516"
       y="93.656937"
       id="text2625-6"><tspan
         sodipodi:role="line"
         id="tspan2623-7"
         style="stroke-width:0.264583"
         x="152.33516"
         y="93.656937">thread</tspan></text>
    <path
       d="m 113.22353,184.8062 c 0,-4.53341 -4.16837,-6.90542 -8.28702,-6.90542 -4.11865,0 -8.287004,2.37201 -8.287004,6.90542 v 24.16894 c 0,4.53341 4.168354,6.90542 8.287004,6.90542 4.11865,0 8.28702,-2.37201 8.28702,-6.90542 z m -8.28702,-3.4527 c 4.18679,0 6.44546,2.44968 6.44546,3.4527 0,1.00301 -2.25867,3.4527 -6.44546,3.4527 -4.18678,0 -6.445452,-2.44969 -6.445452,-3.4527 0,-1.00302 2.258672,-3.4527 6.445452,-3.4527 z m 0,31.07435 c -4.18678,0 -6.445452,-2.4497 -6.445452,-3.45271 v -19.68043 a 14.598941,27.371331 0 0 0 6.445452,2.4169 14.598941,27.371331 0 0 0 6.44546,-2.4169 v 19.68043 c 0,1.00301 -2.25867,3.45271 -6.44546,3.45271 z"
       id="path2"
       style="stroke-width:0.106102;stroke-miterlimit:4;stroke-dasharray:none" />
    <path
       d="m 114.61818,128.08615 c 3.26337,0 4.97086,-3.26229 4.97086,-6.48567 0,-3.22339 -1.70749,-6.48567 -4.97086,-6.48567 H 97.220159 c -3.26337,0 -4.97086,3.26228 -4.97086,6.48567 0,3.22338 1.70749,6.48567 4.97086,6.48567 z m 2.48542,-6.48567 c 0,3.27671 -1.76341,5.04441 -2.48542,5.04441 -0.72203,0 -2.48543,-1.7677 -2.48543,-5.04441 0,-3.27671 1.7634,-5.04442 2.48543,-5.04442 0.72201,0 2.48542,1.76771 2.48542,5.04442 z m -22.368871,0 c 0,-3.27671 1.76342,-5.04442 2.48543,-5.04442 h 14.166961 a 19.703251,11.425579 0 0 0 -1.73981,5.04442 19.703251,11.425579 0 0 0 1.73981,5.04441 H 97.220159 c -0.72201,0 -2.48543,-1.7677 -2.48543,-5.04441 z"
       id="path2-5"
       style="stroke-width:0.946334" />
    <path
       d="m 42.474803,136.54989 a 4.1611262,4.7386679 0 0 1 -0.846329,-3.07879 4.4432366,5.0599335 0 0 1 0.846329,-3.0788 8.9805101,10.226956 0 0 0 1.622134,-5.86309 9.1215651,10.387588 0 0 0 -1.622134,-5.83633 4.1141082,4.6851236 0 0 1 -0.846329,-3.0788 4.1611262,4.7386679 0 0 1 0.846329,-3.07879 9.0980561,10.360816 0 0 0 1.528097,-5.83633 9.1215651,10.387588 0 0 0 -1.528097,-5.8631 4.1611262,4.7386679 0 0 1 -0.752293,-3.078785 h -4.701839 a 9.4036759,10.708854 0 0 0 1.528095,5.863095 4.2786722,4.8725284 0 0 1 0.869842,3.07879 4.3256907,4.9260728 0 0 1 -0.869842,3.0788 9.0980561,10.360816 0 0 0 -1.528095,5.83632 9.4036759,10.708854 0 0 0 1.528095,5.8631 4.7018375,5.354427 0 0 1 0,6.1576 9.4036759,10.708854 0 0 0 0,11.67265 4.7018375,5.354427 0 0 1 0,6.15758 8.9805101,10.226956 0 0 0 -1.528095,5.83634 v 0 h 4.701839 a 4.1611262,4.7386679 0 0 1 0.752293,-3.0788 9.4036759,10.708854 0 0 0 0,-11.67266 z"
       id="path48"
       style="stroke-width:2.50877" />
    <path
       d="m 172.52771,138.83892 a 4.1611262,4.7386679 0 0 1 -0.84633,-3.07879 4.4432366,5.0599335 0 0 1 0.84633,-3.0788 8.9805101,10.226956 0 0 0 1.62214,-5.86309 9.1215651,10.387588 0 0 0 -1.62214,-5.83633 4.1141082,4.6851236 0 0 1 -0.84633,-3.0788 4.1611262,4.7386679 0 0 1 0.84633,-3.07879 9.0980561,10.360816 0 0 0 1.5281,-5.83633 9.1215651,10.387588 0 0 0 -1.5281,-5.8631 4.1611262,4.7386679 0 0 1 -0.75229,-3.07878 h -4.70184 a 9.4036759,10.708854 0 0 0 1.5281,5.86309 4.2786722,4.8725284 0 0 1 0.86984,3.07879 4.3256907,4.9260728 0 0 1 -0.86984,3.0788 9.0980561,10.360816 0 0 0 -1.5281,5.83632 9.4036759,10.708854 0 0 0 1.5281,5.8631 4.7018375,5.354427 0 0 1 0,6.1576 9.4036759,10.708854 0 0 0 0,11.67265 4.7018375,5.354427 0 0 1 0,6.15758 8.9805101,10.226956 0 0 0 -1.5281,5.83634 v 0 h 4.70184 a 4.1611262,4.7386679 0 0 1 0.75229,-3.0788 9.4036759,10.708854 0 0 0 0,-11.67266 z"
       id="path48-3"
       style="stroke-width:1.209;stroke-miterlimit:3.9;stroke-dasharray:none" />
    <text
       xml:space="preserve"
       style="font-style:normal;font-weight:normal;font-size:10.5833px;line-height:1.25;font-family:sans-serif;fill:#000000;fill-opacity:1;stroke:none;stroke-width:0.264583"
       x="151.21733"
       y="192.28699"
       id="text4958"><tspan
         sodipodi:role="line"
         id="tspan4956"
         style="text-align:center;text-anchor:middle;stroke-width:0.264583"
         x="151.21733"
         y="192.28699">UNIX domain</tspan><tspan
         sodipodi:role="line"
         style="text-align:center;text-anchor:middle;stroke-width:0.264583"
         x="151.21733"
         y="205.51611"
         id="tspan2187">socket</tspan></text>
    <text
       xml:space="preserve"
       style="font-style:normal;font-weight:normal;font-size:6.86432px;line-height:1.25;font-family:sans-serif;fill:#000000;fill-opacity:1;stroke:none;stroke-width:0.171608"
       x="95.996429"
       y="110.39814"
       id="text6861"
       transform="scale(0.99352164,1.0065206)"><tspan
         sodipodi:role="line"
         id="tspan6859"
         style="stroke-width:0.171608"
         x="95.996429"
         y="110.39814">queue</tspan></text>
    <rect
       style="fill:#6d665c;fill-opacity:0.350637;stroke:#000000;stroke-width:1.11434;stroke-miterlimit:4;stroke-dasharray:none;stroke-opacity:1"
       id="rect7494"
       width="68.950684"
       height="18.936243"
       x="14.709772"
       y="58.2775" />
    <text
       xml:space="preserve"
       style="font-style:normal;font-weight:normal;font-size:7.45297px;line-height:1.25;font-family:sans-serif;fill:#000000;fill-opacity:1;stroke:none;stroke-width:0.186325"
       x="37.317345"
       y="71.142944"
       id="text11037"
       transform="scale(1.0384841,0.96294204)"><tspan
         sodipodi:role="line"
         id="tspan11035"
         style="stroke-width:0.186325"
         x="37.317345"
         y="71.142944">rclpy</tspan></text>
    <g
       id="g19293"
       transform="translate(-1.6575515,-2.999945)">
      <ellipse
         style="fill:#6d665c;fill-opacity:0.350637;stroke:#000000;stroke-width:0.865;stroke-miterlimit:4;stroke-dasharray:none;stroke-opacity:1"
         id="path14111"
         cx="106.10346"
         cy="254.77396"
         rx="15.882257"
         ry="12.437558" />
      <text
         xml:space="preserve"
         style="font-style:normal;font-weight:normal;font-size:6.7425px;line-height:1.25;font-family:sans-serif;fill:#000000;fill-opacity:1;stroke:none;stroke-width:0.168563"
         x="97.187996"
         y="251.03186"
         id="text15259"
         transform="scale(0.97659197,1.0239691)"><tspan
           sodipodi:role="line"
           id="tspan15257"
           style="stroke-width:0.168563"
           x="97.187996"
           y="251.03186">engine</tspan></text>
    </g>
    <path
       style="fill:none;stroke:#000000;stroke-width:0.365;stroke-linecap:butt;stroke-linejoin:miter;stroke-miterlimit:3.9;stroke-dasharray:none;stroke-opacity:1;marker-start:url(#Arrow1Lstart);marker-end:url(#Arrow1Lend)"
       d="m 104.83064,216.98305 0.14125,21.35497"
       id="path16713" />
    <path
       style="fill:none;stroke:#000000;stroke-width:0.665;stroke-linecap:butt;stroke-linejoin:miter;stroke-miterlimit:4;stroke-dasharray:0.665, 0.665;stroke-dashoffset:0;stroke-opacity:1;marker-end:url(#Arrow1Lend)"
       d="m 51.214973,134.7423 c 22.410412,9.73745 49.530477,38.57586 49.530477,38.57586"
       id="path18287" />
    <path
       style="fill:none;stroke:#000000;stroke-width:0.665;stroke-linecap:butt;stroke-linejoin:miter;stroke-miterlimit:4;stroke-dasharray:0.665, 0.665;stroke-dashoffset:0;stroke-opacity:1;marker-end:url(#Arrow1Lend-2)"
       d="m 110.59009,174.10653 c 15.97574,-18.48838 51.58793,-35.77779 51.58793,-35.77779"
       id="path18287-0" />
    <path
       style="fill:none;stroke:#000000;stroke-width:0.555803;stroke-linecap:butt;stroke-linejoin:miter;stroke-miterlimit:4;stroke-dasharray:0.555803, 0.555803;stroke-dashoffset:0;stroke-opacity:1;marker-end:url(#Arrow1Lend-3)"
       d="m 162.89131,130.55737 c -16.44764,3.90966 -42.41822,-6.14955 -42.41822,-6.14955"
       id="path18287-6" />
    <path
       style="fill:none;stroke:#000000;stroke-width:0.555803;stroke-linecap:butt;stroke-linejoin:miter;stroke-miterlimit:4;stroke-dasharray:0.555803, 0.555803;stroke-dashoffset:0;stroke-opacity:1;marker-end:url(#Arrow1Lend-3-2)"
       d="m 90.270737,121.4344 c -16.44764,3.90966 -42.41822,-6.14955 -42.41822,-6.14955"
       id="path18287-6-1" />
    <g
       id="g11617">
      <ellipse
         style="fill:#6d665c;fill-opacity:0.403922;stroke:#000000;stroke-width:1.065;stroke-miterlimit:4;stroke-dasharray:none;stroke-opacity:1"
         id="path91"
         cx="13.616917"
         cy="14.93802"
         rx="8.4721451"
         ry="8.0333214" />
      <text
         xml:space="preserve"
         style="font-style:normal;font-weight:normal;font-size:4.07893px;line-height:1.25;font-family:sans-serif;fill:#000000;fill-opacity:1;stroke:none;stroke-width:0.101974"
         x="13.085728"
         y="15.192993"
         id="text3969"
         transform="scale(1.0474263,0.95472111)"><tspan
           sodipodi:role="line"
           id="tspan3967"
           style="text-align:center;text-anchor:middle;stroke-width:0.101974"
           x="13.085728"
           y="15.192993">ROS 2</tspan><tspan
           sodipodi:role="line"
           style="text-align:center;text-anchor:middle;stroke-width:0.101974"
           x="13.085728"
           y="20.291656"
           id="tspan3971">node</tspan></text>
    </g>
    <g
       id="g11627"
       transform="translate(45.221624,8.5505896)">
      <ellipse
         style="fill:#6d665c;fill-opacity:0.403922;stroke:#000000;stroke-width:1.065;stroke-miterlimit:4;stroke-dasharray:none;stroke-opacity:1"
         id="ellipse11619"
         cx="13.616917"
         cy="14.93802"
         rx="8.4721451"
         ry="8.0333214" />
      <text
         xml:space="preserve"
         style="font-style:normal;font-weight:normal;font-size:4.07893px;line-height:1.25;font-family:sans-serif;fill:#000000;fill-opacity:1;stroke:none;stroke-width:0.101974"
         x="13.085728"
         y="15.192993"
         id="text11625"
         transform="scale(1.0474263,0.95472111)"><tspan
           sodipodi:role="line"
           id="tspan11621"
           style="text-align:center;text-anchor:middle;stroke-width:0.101974"
           x="13.085728"
           y="15.192993">ROS 2</tspan><tspan
           sodipodi:role="line"
           style="text-align:center;text-anchor:middle;stroke-width:0.101974"
           x="13.085728"
           y="20.291656"
           id="tspan11623">node</tspan></text>
    </g>
    <g
       id="g11637"
       transform="translate(19.32212,20.048443)">
      <ellipse
         style="fill:#6d665c;fill-opacity:0.403922;stroke:#000000;stroke-width:1.065;stroke-miterlimit:4;stroke-dasharray:none;stroke-opacity:1"
         id="ellipse11629"
         cx="13.616917"
         cy="14.93802"
         rx="8.4721451"
         ry="8.0333214" />
      <text
         xml:space="preserve"
         style="font-style:normal;font-weight:normal;font-size:4.07893px;line-height:1.25;font-family:sans-serif;fill:#000000;fill-opacity:1;stroke:none;stroke-width:0.101974"
         x="13.085728"
         y="15.192993"
         id="text11635"
         transform="scale(1.0474263,0.95472111)"><tspan
           sodipodi:role="line"
           id="tspan11631"
           style="text-align:center;text-anchor:middle;stroke-width:0.101974"
           x="13.085728"
           y="15.192993">ROS 2</tspan><tspan
           sodipodi:role="line"
           style="text-align:center;text-anchor:middle;stroke-width:0.101974"
           x="13.085728"
           y="20.291656"
           id="tspan11633">node</tspan></text>
    </g>
    <path
       style="fill:none;stroke:#000000;stroke-width:0.264583px;stroke-linecap:butt;stroke-linejoin:miter;stroke-opacity:1;marker-start:url(#Arrow1Lstart);marker-end:url(#Arrow1Lend)"
       d="m 13.456103,22.977882 c 0,0 -4.2067855,23.427028 10.159866,29.285803 14.366651,5.858774 14.366651,5.858774 14.366651,5.858774"
       id="path11777" />
    <path
       style="fill:none;stroke:#000000;stroke-width:0.264583px;stroke-linecap:butt;stroke-linejoin:miter;stroke-opacity:1;marker-start:url(#Arrow1Lstart);marker-end:url(#Arrow1Lend)"
       d="m 35.202947,42.74617 c 0,0 5.843254,8.004762 6.299883,11.473593 0.456628,3.46883 0.456628,3.46883 0.456628,3.46883"
       id="path11892" />
    <path
       style="fill:none;stroke:#000000;stroke-width:0.264583px;stroke-linecap:butt;stroke-linejoin:miter;stroke-opacity:1;marker-start:url(#Arrow1Lstart);marker-end:url(#Arrow1Lend)"
       d="m 48.424308,57.612462 c 0,0 0.348483,-17.605502 3.914347,-22.085922 3.565861,-4.480419 3.565861,-4.480419 3.565861,-4.480419"
       id="path11894" />
    <path
       class="cls-1"
       d="m 21.494879,100.0888 h 3.819931 a 0.71776871,0.65659271 0 0 1 0.717767,0.65659 v 3.41108 c 0,0.5509 -0.66875,0.87759 -1.050393,0.52848 l -1.218455,-1.12101 a 4.4886803,4.1061065 0 1 0 7.793917,2.7705 c 0,-1.1082 -0.35013,-1.94096 -1.726146,-3.20289 -0.29411,-0.26905 -0.03501,-0.49645 0.133049,-0.64058 l 0.798299,-0.72706 c 0.329124,-0.30107 0.444668,-0.35872 0.735276,-0.0929 1.701637,1.5566 2.391396,2.72886 2.394896,4.68583 a 6.8275558,6.2456379 0 1 1 -11.77841,-4.30469 c -0.409653,-0.38114 -0.539201,-0.50285 -1.228959,-1.13382 -0.269602,-0.24342 -0.02801,-0.82955 0.609228,-0.82955 z"
       id="path11959"
       style="stroke-width:0.334877" />
    <path
       class="cls-1"
       d="m 152.00166,99.27028 h 3.81993 a 0.71776871,0.65659271 0 0 1 0.71777,0.65659 v 3.41108 c 0,0.5509 -0.66875,0.87759 -1.05039,0.52848 l -1.21846,-1.12101 a 4.4886803,4.1061065 0 1 0 7.79392,2.7705 c 0,-1.1082 -0.35013,-1.94096 -1.72615,-3.20289 -0.29411,-0.26905 -0.035,-0.49645 0.13305,-0.64058 l 0.7983,-0.72706 c 0.32913,-0.30107 0.44467,-0.35872 0.73528,-0.0929 1.70164,1.5566 2.39139,2.72886 2.39489,4.68583 a 6.8275558,6.2456379 0 1 1 -11.77841,-4.30469 c -0.40965,-0.38114 -0.5392,-0.50285 -1.22895,-1.13382 -0.26961,-0.24342 -0.028,-0.82955 0.60922,-0.82955 z"
       id="path11959-5"
       style="fill:none;stroke:#000000;stroke-width:0.334877;stroke-linecap:round;stroke-linejoin:round" />
    <text
       xml:space="preserve"
       style="font-style:normal;font-weight:normal;font-size:10.5833px;line-height:1.25;font-family:sans-serif;fill:#000000;fill-opacity:1;stroke:none;stroke-width:0.264583"
       x="132.81477"
       y="160.16374"
       id="text15397"><tspan
         sodipodi:role="line"
         id="tspan15395"
         style="font-style:normal;font-variant:normal;font-weight:normal;font-stretch:normal;font-size:3.52778px;font-family:sans-serif;-inkscape-font-specification:'sans-serif, Normal';font-variant-ligatures:normal;font-variant-caps:normal;font-variant-numeric:normal;font-variant-east-asian:normal;stroke-width:0.264583"
         x="132.81477"
         y="160.16374">event YAML</tspan></text>
    <text
       xml:space="preserve"
       style="font-style:normal;font-weight:normal;font-size:10.5833px;line-height:1.25;font-family:sans-serif;fill:#000000;fill-opacity:1;stroke:none;stroke-width:0.264583"
       x="142.06242"
       y="127.35466"
       id="text15397-4"><tspan
         sodipodi:role="line"
         id="tspan15395-1"
         style="font-style:normal;font-variant:normal;font-weight:normal;font-stretch:normal;font-size:3.52778px;font-family:sans-serif;-inkscape-font-specification:'sans-serif, Normal';font-variant-ligatures:normal;font-variant-caps:normal;font-variant-numeric:normal;font-variant-east-asian:normal;stroke-width:0.264583"
         x="142.06242"
         y="127.35466">event</tspan></text>
    <text
       xml:space="preserve"
       style="font-style:normal;font-weight:normal;font-size:10.5833px;line-height:1.25;font-family:sans-serif;fill:#000000;fill-opacity:1;stroke:none;stroke-width:0.264583"
       x="70.165886"
       y="118.57606"
       id="text15397-5"><tspan
         sodipodi:role="line"
         id="tspan15395-0"
         style="font-style:normal;font-variant:normal;font-weight:normal;font-stretch:normal;font-size:3.52778px;font-family:sans-serif;-inkscape-font-specification:'sans-serif, Normal';font-variant-ligatures:normal;font-variant-caps:normal;font-variant-numeric:normal;font-variant-east-asian:normal;stroke-width:0.264583"
         x="70.165886"
         y="118.57606">event</tspan></text>
    <text
       xml:space="preserve"
       style="font-style:normal;font-weight:normal;font-size:10.5833px;line-height:1.25;font-family:sans-serif;fill:#000000;fill-opacity:1;stroke:none;stroke-width:0.264583"
       x="57.285767"
       y="156.35864"
       id="text15397-9"
       inkscape:transform-center-x="68.035454"
       inkscape:transform-center-y="37.713441"><tspan
         sodipodi:role="line"
         style="font-style:normal;font-variant:normal;font-weight:normal;font-stretch:normal;font-size:3.52778px;font-family:sans-serif;-inkscape-font-specification:'sans-serif, Normal';font-variant-ligatures:normal;font-variant-caps:normal;font-variant-numeric:normal;font-variant-east-asian:normal;stroke-width:0.264583"
         x="57.285767"
         y="156.35864"
         id="tspan22962">event YAML</tspan></text>
    <text
       xml:space="preserve"
       style="font-style:normal;font-weight:normal;font-size:10.5833px;line-height:1.25;font-family:sans-serif;fill:#000000;fill-opacity:1;stroke:none;stroke-width:0.264583"
       x="163.90511"
       y="63.226101"
       id="text2328"><tspan
         sodipodi:role="line"
         id="tspan2326"
         style="stroke-width:0.264583"
         x="163.90511"
         y="63.226101">RipsPy</tspan></text>
    <g
       style="fill:none"
       id="g1519"
       transform="matrix(0.60784998,0,0,0.56111567,65.411951,59.085352)">
      <path
         d="m 11,2 c 0,-0.55228 0.4477,-1 1,-1 0.0161,0 0.0322,3.8e-4 0.0481,0.00114 0.0151,-6.3e-4 0.0304,-8.8e-4 0.0457,-7.5e-4 2.0261,0.01726 4.0153,0.59416 5.7436,1.67626 2.0118,1.2596 3.5622,3.13615 4.4197,5.34943 0.8575,2.21332 0.9761,4.64452 0.338,6.93082 -0.638,2.2862 -1.9984,4.3047 -3.8781,5.7541 -1.8797,1.4494 -4.1777,2.2519 -6.5511,2.2878 C 9.79262,23.0346 7.47138,22.3017 5.54884,20.9097 3.6263,19.5177 2.2056,17.5411 1.49889,15.2752 0.891759,13.3285 0.839553,11.258 1.33799,9.29413 1.47385,8.75881 2.05308,8.48753 2.57385,8.67143 3.09462,8.85532 3.36505,9.4271 3.24007,9.96506 2.8794,11.5176 2.93657,13.1446 3.4147,14.6776 c 0.57778,1.8526 1.73929,3.4685 3.31109,4.6066 1.57179,1.1381 3.46951,1.7372 5.40991,1.7079 1.9403,-0.0292 3.8191,-0.6853 5.3559,-1.8703 1.5367,-1.185 2.6489,-2.8352 3.1706,-4.7044 0.5216,-1.8691 0.4247,-3.8568 -0.2764,-5.66632 C 19.6847,6.94158 18.4172,5.40739 16.7724,4.37759 15.6232,3.65806 14.3329,3.21174 13,3.06259 V 5 C 13,5.55229 12.5523,6 12,6 11.4477,6 11,5.55229 11,5 Z"
         fill="#0f0f0f"
         id="path1507" />
      <path
         fill-rule="evenodd"
         clip-rule="evenodd"
         d="M 5.31205,3.92537 C 4.91543,3.66095 4.38731,3.71325 4.05025,4.05031 3.71318,4.38738 3.66089,4.9155 3.9253,5.31212 l 5.38223,8.07338 c 0.19815,0.2972 0.50176,0.7155 0.97547,1.0072 0.3452,0.2126 0.8934,0.47 1.5645,0.4783 0.7101,0.0089 1.4443,-0.2633 2.1022,-0.9212 0.6579,-0.6579 0.9301,-1.3921 0.9213,-2.1023 C 14.8626,11.1764 14.6053,10.6283 14.3927,10.2831 14.1009,9.80935 13.6826,9.50574 13.3854,9.30759 Z M 10.9716,12.2761 8.36291,8.36297 12.276,10.9717 c 0.2507,0.1671 0.3602,0.2732 0.4137,0.3602 0.1066,0.173 0.1792,0.3632 0.1814,0.5405 0.0017,0.1383 -0.035,0.3626 -0.3356,0.6632 -0.3006,0.3006 -0.5249,0.3373 -0.6632,0.3356 -0.1773,-0.0022 -0.3675,-0.0748 -0.5405,-0.1814 -0.087,-0.0536 -0.193,-0.1631 -0.3602,-0.4137 z"
         fill="#0f0f0f"
         id="path1509" />
    </g>
    <text
       xml:space="preserve"
       style="font-style:normal;font-weight:normal;font-size:10.5833px;line-height:1.25;font-family:sans-serif;fill:#000000;fill-opacity:1;stroke:none;stroke-width:0.264583"
       x="67.866905"
       y="75.739212"
       id="text6513"><tspan
         sodipodi:role="line"
         id="tspan6511"
         style="font-style:normal;font-variant:normal;font-weight:normal;font-stretch:normal;font-size:3.52778px;font-family:sans-serif;-inkscape-font-specification:'sans-serif, Normal';font-variant-ligatures:normal;font-variant-caps:normal;font-variant-numeric:normal;font-variant-east-asian:normal;stroke-width:0.264583"
         x="67.866905"
         y="75.739212">timer</tspan></text>
  </g>
</svg>
